<svg version="1.1" viewBox="0.0 0.0 37.79527559055118 37.79527559055118" fill="none" stroke="none" stroke-linecap="square" stroke-miterlimit="10" xmlns:xlink="http://www.w3.org/1999/xlink" xmlns="http://www.w3.org/2000/svg"><clipPath id="p.0"><path d="m0 0l37.795277 0l0 37.795277l-37.795277 0l0 -37.795277z" clip-rule="nonzero"/></clipPath><g clip-path="url(#p.0)"><path fill="#000000" fill-opacity="0.0" d="m0 0l37.795277 0l0 37.795277l-37.795277 0z" fill-rule="evenodd"/><path fill="#ffffff" d="m12.380192 7.0583534l16.759918 16.797165l-5.4064255 5.405985l-16.759918 -16.797165z" fill-rule="evenodd"/><path stroke="#ffffff" stroke-width="1.0" stroke-linejoin="round" stroke-linecap="butt" d="m12.380192 7.0583534l16.759918 16.797165l-5.4064255 5.405985l-16.759918 -16.797165z" fill-rule="evenodd"/><path fill="#ffffff" d="m30.651752 25.261515l1.7377815 7.1243153l-7.144205 -1.7569447z" fill-rule="evenodd"/><path stroke="#ffffff" stroke-width="1.0" stroke-linejoin="round" stroke-linecap="butt" d="m30.651752 25.261515l1.7377815 7.1243153l-7.144205 -1.7569447z" fill-rule="evenodd"/><path fill="#ffffff" d="m8.109894 2.7268581l2.5487432 2.5485353l-5.4064255 5.405984l-2.5487432 -2.5485353z" fill-rule="evenodd"/><path stroke="#ffffff" stroke-width="1.0" stroke-linejoin="round" stroke-linecap="butt" d="m8.109894 2.7268581l2.5487432 2.5485353l-5.4064255 5.405984l-2.5487432 -2.5485353z" fill-rule="evenodd"/></g></svg>