<svg version="1.1" viewBox="0.0 0.0 37.79527559055118 37.79527559055118" fill="none" stroke="none" stroke-linecap="square" stroke-miterlimit="10" xmlns:xlink="http://www.w3.org/1999/xlink" xmlns="http://www.w3.org/2000/svg"><clipPath id="p.0"><path d="m0 0l37.795277 0l0 37.795277l-37.795277 0l0 -37.795277z" clip-rule="nonzero"/></clipPath><g clip-path="url(#p.0)"><path fill="#000000" fill-opacity="0.0" d="m0 0l37.795277 0l0 37.795277l-37.795277 0z" fill-rule="evenodd"/><path fill="#ffffff" d="m6.0524936 5.880713l25.700787 0l0 6.96063l-25.700787 0z" fill-rule="evenodd"/><path stroke="#ffffff" stroke-width="1.0" stroke-linejoin="round" stroke-linecap="butt" d="m6.0524936 5.880713l25.700787 0l0 6.96063l-25.700787 0z" fill-rule="evenodd"/><path fill="#ffffff" d="m12.566978 2.330727l12.661417 0l0 2.96063l-12.661417 0z" fill-rule="evenodd"/><path stroke="#ffffff" stroke-width="1.0" stroke-linejoin="round" stroke-linecap="butt" d="m12.566978 2.330727l12.661417 0l0 2.96063l-12.661417 0z" fill-rule="evenodd"/><path fill="#ffffff" d="m16.389881 14.296648l5.0393696 0l0 19.874014l-5.0393696 0z" fill-rule="evenodd"/><path stroke="#ffffff" stroke-width="1.0" stroke-linejoin="round" stroke-linecap="butt" d="m16.389881 14.296648l5.0393696 0l0 19.874014l-5.0393696 0z" fill-rule="evenodd"/><path fill="#ffffff" d="m23.695269 14.296648l5.0393696 0l0 19.874014l-5.0393696 0z" fill-rule="evenodd"/><path stroke="#ffffff" stroke-width="1.0" stroke-linejoin="round" stroke-linecap="butt" d="m23.695269 14.296648l5.0393696 0l0 19.874014l-5.0393696 0z" fill-rule="evenodd"/><path fill="#ffffff" d="m9.084493 14.296648l5.0393696 0l0 19.874014l-5.0393696 0z" fill-rule="evenodd"/><path stroke="#ffffff" stroke-width="1.0" stroke-linejoin="round" stroke-linecap="butt" d="m9.084493 14.296648l5.0393696 0l0 19.874014l-5.0393696 0z" fill-rule="evenodd"/><path fill="#ffffff" d="m9.089286 30.752535l19.622047 0l0 3.7795277l-19.622047 0z" fill-rule="evenodd"/><path stroke="#ffffff" stroke-width="1.0" stroke-linejoin="round" stroke-linecap="butt" d="m9.089286 30.752535l19.622047 0l0 3.7795277l-19.622047 0z" fill-rule="evenodd"/><path fill="#ffffff" d="m9.089286 11.053197l19.622047 0l0 3.7795277l-19.622047 0z" fill-rule="evenodd"/><path stroke="#ffffff" stroke-width="1.0" stroke-linejoin="round" stroke-linecap="butt" d="m9.089286 11.053197l19.622047 0l0 3.7795277l-19.622047 0z" fill-rule="evenodd"/></g></svg>